<svg id="Layer_1" data-name="Layer 1" xmlns="http://www.w3.org/2000/svg" viewBox="0 0 140 140"><defs><style>.cls-1{fill:#fce67c;}</style></defs><polygon class="cls-1" points="27.72 32.09 32.89 42.57 44.45 44.24 36.09 52.4 38.06 63.91 27.72 58.47 17.39 63.91 19.36 52.4 11 44.24 22.56 42.57 27.72 32.09"/><polygon class="cls-1" points="70 32.09 75.17 42.57 86.72 44.24 78.36 52.4 80.34 63.91 70 58.47 59.66 63.91 61.64 52.4 53.28 44.24 64.83 42.57 70 32.09"/><polygon class="cls-1" points="112.28 32.09 117.44 42.57 129 44.24 120.64 52.4 122.61 63.91 112.28 58.47 101.94 63.91 103.92 52.4 95.55 44.24 107.11 42.57 112.28 32.09"/><polygon class="cls-1" points="48.86 76.09 54.03 86.57 65.58 88.25 57.22 96.4 59.2 107.91 48.86 102.47 38.53 107.91 40.5 96.4 32.14 88.25 43.69 86.57 48.86 76.09"/><polygon class="cls-1" points="91.14 76.09 96.31 86.57 107.86 88.25 99.5 96.4 101.47 107.91 91.14 102.47 80.8 107.91 82.78 96.4 74.42 88.25 85.97 86.57 91.14 76.09"/></svg>