<svg id="Layer_1" data-name="Layer 1" xmlns="http://www.w3.org/2000/svg" viewBox="0 0 140 140"><defs><style>.cls-1{fill:#fce67c;}</style></defs><polygon class="cls-1" points="27.72 54.09 32.89 64.57 44.45 66.25 36.09 74.4 38.06 85.91 27.72 80.47 17.39 85.91 19.36 74.4 11 66.25 22.56 64.57 27.72 54.09"/><polygon class="cls-1" points="70 54.09 75.17 64.57 86.72 66.25 78.36 74.4 80.34 85.91 70 80.47 59.66 85.91 61.64 74.4 53.28 66.25 64.83 64.57 70 54.09"/><polygon class="cls-1" points="112.28 54.09 117.44 64.57 129 66.25 120.64 74.4 122.61 85.91 112.28 80.47 101.94 85.91 103.92 74.4 95.55 66.25 107.11 64.57 112.28 54.09"/></svg>