<svg id="Layer_1" data-name="Layer 1" xmlns="http://www.w3.org/2000/svg" viewBox="0 0 140 140"><defs><style>.cls-1{fill:#fce67c;}</style></defs><polygon class="cls-1" points="27.72 32.09 32.89 42.57 44.45 44.24 36.09 52.4 38.06 63.91 27.72 58.47 17.39 63.91 19.36 52.4 11 44.24 22.56 42.57 27.72 32.09"/><polygon class="cls-1" points="70 32.09 75.17 42.57 86.72 44.24 78.36 52.4 80.34 63.91 70 58.47 59.66 63.91 61.64 52.4 53.28 44.24 64.83 42.57 70 32.09"/><polygon class="cls-1" points="112.28 32.09 117.44 42.57 129 44.24 120.64 52.4 122.61 63.91 112.28 58.47 101.94 63.91 103.92 52.4 95.55 44.24 107.11 42.57 112.28 32.09"/><polygon class="cls-1" points="27.72 76.09 32.89 86.57 44.45 88.25 36.09 96.4 38.06 107.91 27.72 102.47 17.39 107.91 19.36 96.4 11 88.25 22.56 86.57 27.72 76.09"/><polygon class="cls-1" points="70 76.09 75.17 86.57 86.72 88.25 78.36 96.4 80.34 107.91 70 102.47 59.66 107.91 61.64 96.4 53.28 88.25 64.83 86.57 70 76.09"/><polygon class="cls-1" points="112.28 76.09 117.44 86.57 129 88.25 120.64 96.4 122.61 107.91 112.28 102.47 101.94 107.91 103.92 96.4 95.55 88.25 107.11 86.57 112.28 76.09"/></svg>