<svg id="Layer_1" data-name="Layer 1" xmlns="http://www.w3.org/2000/svg" viewBox="0 0 140 140"><defs><style>.cls-1{fill:#fce67c;}</style></defs><polygon class="cls-1" points="95 73.09 100.17 83.57 111.72 85.25 103.36 93.4 105.34 104.91 95 99.47 84.66 104.91 86.64 93.4 78.28 85.25 89.83 83.57 95 73.09"/><polygon class="cls-1" points="45 73.09 50.17 83.57 61.72 85.25 53.36 93.4 55.34 104.91 45 99.47 34.66 104.91 36.64 93.4 28.28 85.25 39.83 83.57 45 73.09"/><polygon class="cls-1" points="45.28 35.09 50.44 45.57 62 47.24 53.64 55.4 55.61 66.91 45.28 61.47 34.94 66.91 36.91 55.4 28.55 47.24 40.11 45.57 45.28 35.09"/><polygon class="cls-1" points="94.55 35.09 99.72 45.57 111.28 47.24 102.92 55.4 104.89 66.91 94.55 61.47 84.22 66.91 86.19 55.4 77.83 47.24 89.39 45.57 94.55 35.09"/></svg>